<?xml version="1.0" encoding="UTF-8"?><svg xmlns="http://www.w3.org/2000/svg" xmlns:xlink="http://www.w3.org/1999/xlink" contentScriptType="text/ecmascript" width="142.5" zoomAndPan="magnify" contentStyleType="text/css" viewBox="0 0 142.5 142.499995" height="142.499995" preserveAspectRatio="xMidYMid meet" version="1.0"><defs><clipPath id="clip-0"><path d="M 0 0 L 142 0 L 142 142 L 0 142 Z M 0 0 " clip-rule="nonzero"/></clipPath><clipPath id="clip-1"><path d="M 39.140625 33 L 103 33 L 103 110.320312 L 39.140625 110.320312 Z M 39.140625 33 " clip-rule="nonzero"/></clipPath><clipPath id="clip-2"><path d="M 0.15625 0.15625 L 142 0.15625 L 142 142 L 0.15625 142 Z M 0.15625 0.15625 " clip-rule="nonzero"/></clipPath></defs><g clip-path="url(#clip-0)"><path fill="rgb(100%, 100%, 100%)" d="M 142.34375 71.171875 C 142.34375 72.335938 142.3125 73.5 142.257812 74.664062 C 142.199219 75.828125 142.113281 76.988281 142 78.148438 C 141.886719 79.304688 141.742188 80.460938 141.570312 81.613281 C 141.402344 82.765625 141.203125 83.914062 140.972656 85.054688 C 140.746094 86.199219 140.492188 87.335938 140.207031 88.464844 C 139.925781 89.59375 139.617188 90.714844 139.277344 91.832031 C 138.9375 92.945312 138.574219 94.050781 138.179688 95.148438 C 137.789062 96.246094 137.371094 97.332031 136.925781 98.40625 C 136.476562 99.484375 136.007812 100.546875 135.507812 101.601562 C 135.011719 102.652344 134.488281 103.695312 133.9375 104.71875 C 133.390625 105.746094 132.816406 106.761719 132.214844 107.761719 C 131.617188 108.757812 130.996094 109.742188 130.347656 110.710938 C 129.699219 111.679688 129.03125 112.632812 128.335938 113.566406 C 127.640625 114.503906 126.925781 115.421875 126.1875 116.320312 C 125.449219 117.222656 124.6875 118.101562 123.90625 118.964844 C 123.121094 119.828125 122.320312 120.671875 121.496094 121.496094 C 120.671875 122.320312 119.828125 123.121094 118.964844 123.90625 C 118.101562 124.6875 117.222656 125.449219 116.320312 126.1875 C 115.421875 126.925781 114.503906 127.640625 113.566406 128.335938 C 112.632812 129.03125 111.679688 129.699219 110.710938 130.347656 C 109.742188 130.996094 108.757812 131.617188 107.761719 132.214844 C 106.761719 132.816406 105.746094 133.390625 104.71875 133.9375 C 103.695312 134.488281 102.652344 135.011719 101.601562 135.507812 C 100.546875 136.007812 99.484375 136.476562 98.40625 136.925781 C 97.332031 137.371094 96.246094 137.789062 95.148438 138.179688 C 94.050781 138.574219 92.945312 138.9375 91.832031 139.277344 C 90.714844 139.617188 89.59375 139.925781 88.464844 140.207031 C 87.335938 140.492188 86.199219 140.746094 85.054688 140.972656 C 83.914062 141.203125 82.765625 141.402344 81.613281 141.570312 C 80.460938 141.742188 79.304688 141.886719 78.148438 142 C 76.988281 142.113281 75.828125 142.199219 74.664062 142.257812 C 73.5 142.3125 72.335938 142.34375 71.171875 142.34375 C 70.007812 142.34375 68.84375 142.3125 67.679688 142.257812 C 66.515625 142.199219 65.355469 142.113281 64.195312 142 C 63.035156 141.886719 61.878906 141.742188 60.726562 141.570312 C 59.574219 141.402344 58.429688 141.203125 57.285156 140.972656 C 56.144531 140.746094 55.007812 140.492188 53.878906 140.207031 C 52.746094 139.925781 51.625 139.617188 50.511719 139.277344 C 49.394531 138.9375 48.289062 138.574219 47.195312 138.179688 C 46.097656 137.789062 45.011719 137.371094 43.933594 136.925781 C 42.859375 136.476562 41.792969 136.007812 40.742188 135.507812 C 39.6875 135.011719 38.648438 134.488281 37.621094 133.9375 C 36.59375 133.390625 35.582031 132.816406 34.582031 132.214844 C 33.582031 131.617188 32.597656 130.996094 31.628906 130.347656 C 30.660156 129.699219 29.710938 129.03125 28.773438 128.335938 C 27.839844 127.640625 26.921875 126.925781 26.019531 126.1875 C 25.121094 125.449219 24.238281 124.6875 23.375 123.90625 C 22.511719 123.121094 21.667969 122.320312 20.84375 121.496094 C 20.023438 120.671875 19.21875 119.828125 18.4375 118.964844 C 17.65625 118.101562 16.894531 117.222656 16.15625 116.320312 C 15.417969 115.421875 14.699219 114.503906 14.007812 113.566406 C 13.3125 112.632812 12.640625 111.679688 11.996094 110.710938 C 11.347656 109.742188 10.722656 108.757812 10.125 107.761719 C 9.527344 106.761719 8.953125 105.746094 8.402344 104.71875 C 7.855469 103.695312 7.332031 102.652344 6.832031 101.601562 C 6.335938 100.546875 5.863281 99.484375 5.417969 98.40625 C 4.972656 97.332031 4.554688 96.246094 4.160156 95.148438 C 3.769531 94.050781 3.402344 92.945312 3.066406 91.832031 C 2.726562 90.714844 2.414062 89.59375 2.132812 88.464844 C 1.851562 87.335938 1.59375 86.199219 1.367188 85.054688 C 1.140625 83.914062 0.941406 82.765625 0.769531 81.613281 C 0.597656 80.460938 0.457031 79.304688 0.34375 78.148438 C 0.230469 76.988281 0.144531 75.828125 0.0859375 74.664062 C 0.0273438 73.5 0 72.335938 0 71.171875 C 0 70.007812 0.0273438 68.84375 0.0859375 67.679688 C 0.144531 66.515625 0.230469 65.355469 0.34375 64.195312 C 0.457031 63.035156 0.597656 61.878906 0.769531 60.726562 C 0.941406 59.574219 1.140625 58.429688 1.367188 57.285156 C 1.59375 56.144531 1.851562 55.007812 2.132812 53.878906 C 2.414062 52.746094 2.726562 51.625 3.066406 50.511719 C 3.402344 49.394531 3.769531 48.289062 4.160156 47.195312 C 4.554688 46.097656 4.972656 45.011719 5.417969 43.933594 C 5.863281 42.859375 6.335938 41.792969 6.832031 40.742188 C 7.332031 39.6875 7.855469 38.648438 8.402344 37.621094 C 8.953125 36.59375 9.527344 35.582031 10.125 34.582031 C 10.722656 33.582031 11.347656 32.597656 11.996094 31.628906 C 12.640625 30.660156 13.3125 29.710938 14.007812 28.773438 C 14.699219 27.839844 15.417969 26.921875 16.15625 26.019531 C 16.894531 25.121094 17.65625 24.238281 18.4375 23.375 C 19.21875 22.511719 20.023438 21.667969 20.84375 20.84375 C 21.667969 20.023438 22.511719 19.21875 23.375 18.4375 C 24.238281 17.65625 25.121094 16.894531 26.019531 16.15625 C 26.921875 15.417969 27.839844 14.699219 28.773438 14.007812 C 29.710938 13.3125 30.660156 12.640625 31.628906 11.996094 C 32.597656 11.347656 33.582031 10.722656 34.582031 10.125 C 35.582031 9.527344 36.59375 8.953125 37.621094 8.402344 C 38.648438 7.855469 39.6875 7.332031 40.742188 6.832031 C 41.792969 6.335938 42.859375 5.863281 43.933594 5.417969 C 45.011719 4.972656 46.097656 4.554688 47.195312 4.160156 C 48.289062 3.769531 49.394531 3.402344 50.511719 3.066406 C 51.625 2.726562 52.746094 2.414062 53.878906 2.132812 C 55.007812 1.851562 56.144531 1.59375 57.285156 1.367188 C 58.429688 1.140625 59.574219 0.941406 60.726562 0.769531 C 61.878906 0.597656 63.035156 0.457031 64.195312 0.34375 C 65.355469 0.230469 66.515625 0.144531 67.679688 0.0859375 C 68.84375 0.0273438 70.007812 0 71.171875 0 C 72.335938 0 73.5 0.0273438 74.664062 0.0859375 C 75.828125 0.144531 76.988281 0.230469 78.148438 0.34375 C 79.304688 0.457031 80.460938 0.597656 81.613281 0.769531 C 82.765625 0.941406 83.914062 1.140625 85.054688 1.367188 C 86.199219 1.59375 87.335938 1.851562 88.464844 2.132812 C 89.59375 2.414062 90.714844 2.726562 91.832031 3.066406 C 92.945312 3.402344 94.050781 3.769531 95.148438 4.160156 C 96.246094 4.554688 97.332031 4.972656 98.40625 5.417969 C 99.484375 5.863281 100.546875 6.335938 101.601562 6.832031 C 102.652344 7.332031 103.695312 7.855469 104.71875 8.402344 C 105.746094 8.953125 106.761719 9.527344 107.761719 10.125 C 108.757812 10.722656 109.742188 11.347656 110.710938 11.996094 C 111.679688 12.640625 112.632812 13.3125 113.566406 14.007812 C 114.503906 14.699219 115.421875 15.417969 116.320312 16.15625 C 117.222656 16.894531 118.101562 17.65625 118.964844 18.4375 C 119.828125 19.21875 120.671875 20.023438 121.496094 20.84375 C 122.320312 21.667969 123.121094 22.511719 123.90625 23.375 C 124.6875 24.238281 125.449219 25.121094 126.1875 26.019531 C 126.925781 26.921875 127.640625 27.839844 128.335938 28.773438 C 129.03125 29.710938 129.699219 30.660156 130.347656 31.628906 C 130.996094 32.597656 131.617188 33.582031 132.214844 34.582031 C 132.816406 35.582031 133.390625 36.59375 133.9375 37.621094 C 134.488281 38.648438 135.011719 39.6875 135.507812 40.742188 C 136.007812 41.792969 136.476562 42.859375 136.925781 43.933594 C 137.371094 45.011719 137.789062 46.097656 138.179688 47.195312 C 138.574219 48.289062 138.9375 49.394531 139.277344 50.511719 C 139.617188 51.625 139.925781 52.746094 140.207031 53.878906 C 140.492188 55.007812 140.746094 56.144531 140.972656 57.285156 C 141.203125 58.429688 141.402344 59.574219 141.570312 60.726562 C 141.742188 61.878906 141.886719 63.035156 142 64.195312 C 142.113281 65.355469 142.199219 66.515625 142.257812 67.679688 C 142.3125 68.84375 142.34375 70.007812 142.34375 71.171875 Z M 142.34375 71.171875 " fill-opacity="1" fill-rule="nonzero"/></g><g clip-path="url(#clip-1)"><path fill="rgb(7.839966%, 14.118958%, 15.289307%)" d="M 100.75 80.945312 C 98.011719 81.605469 95.476562 82.515625 93.09375 83.835938 C 92.941406 83.632812 92.742188 83.429688 92.589844 83.277344 C 94.210938 81.046875 95.984375 78.914062 97.859375 76.886719 C 99.078125 75.566406 97.101562 73.535156 95.882812 74.90625 C 93.753906 77.242188 91.980469 79.675781 90.460938 82.261719 C 90.308594 82.261719 90.15625 82.210938 90.003906 82.210938 C 94.566406 66.6875 96.898438 50.398438 91.167969 34.722656 C 90.761719 33.65625 89.699219 32.84375 88.480469 33.199219 C 82.703125 34.925781 77.785156 38.222656 74.488281 43.09375 C 73.628906 41.824219 72.664062 40.558594 71.699219 39.289062 C 69.621094 36.652344 66.984375 32.035156 63.03125 33.605469 C 59.582031 34.925781 56.644531 37.867188 54.664062 40.914062 C 50.101562 48.015625 50.457031 56.894531 53.957031 64.351562 C 55.121094 66.789062 56.644531 69.070312 58.367188 71.152344 C 52.992188 72.675781 48.074219 76.023438 44.019531 79.777344 C 41.484375 82.109375 40.316406 85.867188 39.710938 89.214844 C 39.152344 92.359375 39.507812 95.558594 41.28125 98.246094 C 44.78125 103.472656 51.421875 105.5 57.351562 106.007812 C 63.4375 106.515625 69.164062 105.347656 74.386719 102.457031 C 73.628906 104.386719 73.324219 106.414062 73.679688 108.851562 C 73.777344 109.710938 74.945312 110.320312 75.757812 110.015625 C 78.796875 108.851562 80.066406 106.007812 81.636719 103.320312 C 83.816406 99.617188 85.996094 95.910156 88.175781 92.207031 C 88.53125 91.597656 88.480469 91.042969 88.175781 90.585938 C 89.191406 90.941406 90.257812 90.890625 91.269531 90.484375 C 92.792969 89.824219 93.753906 88.300781 93.90625 86.675781 C 96.339844 85.410156 98.824219 84.34375 101.511719 83.632812 C 103.183594 83.125 102.472656 80.539062 100.75 80.945312 Z M 87.773438 38.171875 C 92.082031 51.261719 89.851562 65.214844 87.46875 78.660156 C 86.453125 67.855469 83.007812 57.453125 77.582031 48.066406 C 79.8125 43.804688 83.359375 40.152344 87.773438 38.171875 Z M 76.210938 98.703125 C 71.394531 100.679688 65.972656 101.695312 60.800781 101.542969 C 56.085938 101.441406 50.355469 100.375 46.757812 97.027344 C 42.953125 93.527344 44.070312 86.171875 47.820312 82.972656 C 51.675781 79.625 56.644531 76.074219 61.8125 75.414062 C 62.015625 75.363281 62.21875 75.3125 62.421875 75.261719 C 62.675781 75.464844 62.929688 75.667969 63.183594 75.921875 C 65.109375 77.542969 67.1875 79.015625 69.367188 80.285156 C 71.851562 81.808594 73.578125 82.667969 76.464844 82.617188 C 78.140625 82.617188 78.59375 80.742188 77.734375 79.625 C 76.617188 78.152344 75.757812 77.34375 74.132812 76.429688 C 72.359375 75.464844 70.6875 74.398438 69.0625 73.28125 C 66.023438 71.152344 63.183594 68.511719 61.054688 65.46875 C 57.046875 59.785156 54.96875 52.429688 57.65625 45.734375 C 58.824219 42.839844 60.851562 40.203125 63.539062 38.578125 C 64.703125 37.867188 64.246094 37.96875 65.109375 38.578125 C 65.71875 39.035156 66.226562 39.898438 66.730469 40.457031 C 67.949219 41.875 69.0625 43.398438 70.179688 44.921875 C 71.042969 46.136719 71.800781 47.355469 72.5625 48.574219 C 72.664062 48.878906 72.867188 49.183594 73.070312 49.4375 C 75.910156 54.15625 78.242188 59.128906 79.964844 64.351562 C 82.449219 71.761719 83.96875 79.574219 84.273438 87.386719 C 82.753906 87.945312 82.144531 89.316406 81.179688 90.890625 C 79.863281 92.96875 78.542969 95.101562 77.226562 97.179688 C 76.921875 97.6875 76.617188 98.144531 76.3125 98.652344 C 76.261719 98.652344 76.261719 98.652344 76.210938 98.703125 Z M 76.210938 98.703125 " fill-opacity="1" fill-rule="nonzero"/></g><g clip-path="url(#clip-2)"><path fill="rgb(7.839966%, 14.118958%, 15.289307%)" d="M 71.328125 7.273438 C 106.652344 7.273438 135.382812 36.007812 135.382812 71.328125 C 135.382812 106.652344 106.652344 135.382812 71.328125 135.382812 C 36.007812 135.382812 7.273438 106.652344 7.273438 71.328125 C 7.273438 36.007812 36.007812 7.273438 71.328125 7.273438 M 71.328125 0.15625 C 32.019531 0.15625 0.15625 32.019531 0.15625 71.328125 C 0.15625 110.636719 32.019531 142.5 71.328125 142.5 C 110.636719 142.5 142.5 110.636719 142.5 71.328125 C 142.5 32.019531 110.636719 0.15625 71.328125 0.15625 Z M 71.328125 0.15625 " fill-opacity="1" fill-rule="nonzero"/></g></svg>